HIERARCHY
ROOT Hips
{
	OFFSET 0.000000 0.000000 0.000000
	CHANNELS 6 Xposition Yposition Zposition Zrotation Yrotation Xrotation 
	JOINT LHipJoint
	{
		OFFSET 0.000000 0.000000 0.000000
		CHANNELS 3 Zrotation Yrotation Xrotation
		JOINT LeftUpLeg
		{
			OFFSET 1.363060 -1.794630 0.839290
			CHANNELS 3 Zrotation Yrotation Xrotation
			JOINT LeftLeg
			{
				OFFSET 2.448110 -6.726130 0.000000
				CHANNELS 3 Zrotation Yrotation Xrotation
				JOINT LeftFoot
				{
					OFFSET 2.562200 -7.039590 0.000000
					CHANNELS 3 Zrotation Yrotation Xrotation
					JOINT LeftToeBase
					{
						OFFSET 0.157640 -0.433110 2.322550
						CHANNELS 3 Zrotation Yrotation Xrotation
						End Site
						{
							OFFSET 0.000000 0.000000 0.000000
						}
					}
				}
			}
		}
	}
	JOINT RHipJoint
	{
		OFFSET 0.000000 0.000000 0.000000
		CHANNELS 3 Zrotation Yrotation Xrotation
		JOINT RightUpLeg
		{
			OFFSET -1.305520 -1.794630 0.839290
			CHANNELS 3 Zrotation Yrotation Xrotation
			JOINT RightLeg
			{
				OFFSET -2.542530 -6.985550 0.000000
				CHANNELS 3 Zrotation Yrotation Xrotation
				JOINT RightFoot
				{
					OFFSET -2.568260 -7.056230 0.000000
					CHANNELS 3 Zrotation Yrotation Xrotation
					JOINT RightToeBase
					{
						OFFSET -0.164730 -0.452590 2.363150
						CHANNELS 3 Zrotation Yrotation Xrotation
						End Site
						{
							OFFSET 0.000000 0.000000 0.000000
						}
					}
				}
			}
		}
	}
	JOINT LowerBack
	{
		OFFSET 0.000000 0.000000 0.000000
		CHANNELS 3 Zrotation Yrotation Xrotation
		JOINT Spine
		{
			OFFSET 0.028270 2.035590 -0.193380
			CHANNELS 3 Zrotation Yrotation Xrotation
			JOINT Spine1
			{
				OFFSET 0.056720 2.048850 -0.042750
				CHANNELS 3 Zrotation Yrotation Xrotation
				JOINT Neck
				{
					OFFSET 0.000000 0.000000 0.000000
					CHANNELS 3 Zrotation Yrotation Xrotation
					JOINT Neck1
					{
						OFFSET -0.054170 1.746240 0.172020
						CHANNELS 3 Zrotation Yrotation Xrotation
						JOINT Head
						{
							OFFSET 0.104070 1.761360 -0.123970
							CHANNELS 3 Zrotation Yrotation Xrotation
							End Site
							{
								OFFSET 0.000000 0.000000 0.000000
							}
						}
					}
				}
				JOINT LeftShoulder
				{
					OFFSET 0.000000 0.000000 0.000000
					CHANNELS 3 Zrotation Yrotation Xrotation
					JOINT LeftArm
					{
						OFFSET 3.362410 1.200890 -0.311210
						CHANNELS 3 Zrotation Yrotation Xrotation
						JOINT LeftForeArm
						{
							OFFSET 4.983000 -0.000000 -0.000000
							CHANNELS 3 Zrotation Yrotation Xrotation
							JOINT LeftHand
							{
								OFFSET 3.483560 -0.000000 -0.000000
								CHANNELS 3 Zrotation Yrotation Xrotation
								JOINT LeftFingerBase
								{
									OFFSET 0.000000 0.000000 0.000000
									CHANNELS 3 Zrotation Yrotation Xrotation
									JOINT LeftHandIndex1
									{
										OFFSET 0.715260 -0.000000 -0.000000
										CHANNELS 3 Zrotation Yrotation Xrotation
										End Site
										{
											OFFSET 0.000000 0.000000 0.000000
										}
									}
								}
								JOINT LThumb
								{
									OFFSET 0.000000 0.000000 0.000000
									CHANNELS 3 Zrotation Yrotation Xrotation
									End Site
									{
										OFFSET 0.000000 0.000000 0.000000
									}
								}
							}
						}
					}
				}
				JOINT RightShoulder
				{
					OFFSET 0.000000 0.000000 0.000000
					CHANNELS 3 Zrotation Yrotation Xrotation
					JOINT RightArm
					{
						OFFSET -3.136600 1.374050 -0.404650
						CHANNELS 3 Zrotation Yrotation Xrotation
						JOINT RightForeArm
						{
							OFFSET -5.241900 -0.000000 -0.000000
							CHANNELS 3 Zrotation Yrotation Xrotation
							JOINT RightHand
							{
								OFFSET -3.444170 -0.000000 -0.000000
								CHANNELS 3 Zrotation Yrotation Xrotation
								JOINT RightFingerBase
								{
									OFFSET 0.000000 0.000000 0.000000
									CHANNELS 3 Zrotation Yrotation Xrotation
									JOINT RightHandIndex1
									{
										OFFSET -0.622530 -0.000000 -0.000000
										CHANNELS 3 Zrotation Yrotation Xrotation
										End Site
										{
											OFFSET 0.000000 0.000000 0.000000
										}
									}
								}
								JOINT RThumb
								{
									OFFSET 0.000000 0.000000 0.000000
									CHANNELS 3 Zrotation Yrotation Xrotation
									End Site
									{
										OFFSET 0.000000 0.000000 0.000000
									}
								}
							}
						}
					}
				}
			}
		}
	}
}
MOTION
Frames: 5
Frame Time: 0.008333
7.928668 15.928168 1.188584 172.783610 -89.696758 -145.979979 -12.040096 -0.480228 -2.407259 -7.633472 3.806576 -50.672027 1.228511 5.371094 78.664960 2.463805 13.468167 -15.953221 -1.789901 0.000000 -19.163600 8.398480 0.081294 -3.124424 18.713511 -4.480876 -50.260173 1.558271 -4.513599 62.340333 -1.744187 -1.213127 -26.801844 1.265900 0.000000 -19.986300 6.671076 -0.632129 7.176106 0.829009 -0.756294 -1.506342 -4.688130 -0.698109 -0.374241 8.351972 -11.763792 -8.606632 -2.029240 -0.114283 -0.606598 0.000000 0.000000 0.000000 6.190393 11.025459 1.617928 -71.278104 4.066894 14.043429 -179.838526 -88.746968 -179.988325 -1.757298 2.577253 -0.034077 0.009943 0.299750 0.000000 0.000000 0.000000 0.000000 0.000000 0.000000 0.000000 4.681155 -5.542075 0.079227 67.987164 6.508306 10.445158 179.768156 86.061340 179.982413 -3.359311 6.688229 -0.214105 0.071918 -0.487146 0.000000 0.000000 0.000000 0.000000 0.000000 0.000000 0.000000 
7.774970 15.956102 1.171116 176.038854 -89.578376 -149.211239 -11.767641 -0.590630 -2.353338 -8.170429 3.393288 -52.148839 1.149193 5.345435 78.213741 2.490487 13.333288 -16.562072 -1.906500 0.000001 -18.848100 8.572468 0.095310 -3.268876 18.482009 -4.973483 -49.502878 1.593449 -4.506299 62.079170 -1.628587 -0.798092 -26.453185 1.117800 -0.000000 -21.781100 6.397286 -0.472847 7.294133 0.790807 -0.570635 -1.478184 -4.591523 -0.515704 -0.353366 8.130671 -11.615416 -8.580964 -1.931754 -0.107088 -0.602049 0.000000 0.000000 0.000000 5.864493 11.474874 1.679197 -71.307438 4.800463 14.378619 -179.855703 -89.092632 -179.988569 -1.831556 2.595810 -0.035988 0.009690 0.290806 0.000000 0.000000 0.000000 0.000000 0.000000 0.000000 0.000000 4.037392 -5.255767 -0.001635 67.681675 6.971019 10.628689 179.746354 85.465876 179.982009 -3.341173 6.666544 -0.212425 0.070532 -0.492824 0.000000 0.000000 0.000000 0.000000 0.000000 0.000000 0.000000 
7.620313 15.983001 1.154322 179.664296 -89.486844 -152.803309 -11.483218 -0.700179 -2.288173 -8.679003 2.954614 -53.600050 1.062446 5.305597 77.650092 2.531774 13.261578 -17.155281 -2.026500 -0.000000 -18.568200 8.748767 0.099291 -3.408489 18.260958 -5.464821 -48.731693 1.637252 -4.499485 61.762905 -1.519034 -0.392035 -26.124299 0.977700 0.000000 -23.638300 6.139839 -0.323054 7.397785 0.757482 -0.394087 -1.452942 -4.495023 -0.342742 -0.330070 7.914505 -11.478030 -8.566336 -1.833971 -0.099743 -0.600366 0.000000 0.000000 0.000000 5.548107 11.929756 1.739531 -71.314281 5.542996 14.687513 -179.873743 -89.430911 -179.988339 -1.881308 2.616247 -0.037497 0.008938 0.282043 0.000000 0.000000 0.000000 0.000000 0.000000 0.000000 0.000000 3.403552 -4.987660 -0.079975 67.341232 7.419404 10.781839 179.726349 84.892486 179.981576 -3.331628 6.643914 -0.211246 0.069352 -0.498148 0.000000 0.000000 0.000000 0.000000 0.000000 0.000000 0.000000 
7.464395 16.008664 1.138202 -176.380326 -89.425954 -156.713470 -11.191135 -0.811387 -2.210681 -9.160612 2.492482 -55.022334 0.968600 5.250388 76.967953 2.588215 13.253603 -17.727874 -2.150400 -0.000000 -18.383400 8.923423 0.088911 -3.540318 18.053066 -5.947619 -47.948704 1.689632 -4.493398 61.391777 -1.415888 0.002562 -25.815467 0.845701 -0.000000 -25.446300 5.897719 -0.185010 7.482160 0.728974 -0.228986 -1.430943 -4.398293 -0.181463 -0.301487 7.704872 -11.355172 -8.563579 -1.736097 -0.092250 -0.601673 0.000000 0.000000 0.000000 5.248075 12.395475 1.797772 -71.307086 6.289735 14.971989 -179.891703 -89.764257 -179.988553 -1.909312 2.637009 -0.038506 0.007733 0.273506 0.000000 0.000000 0.000000 0.000000 0.000000 0.000000 0.000000 2.783518 -4.743459 -0.156475 66.967766 7.858268 10.910147 179.708181 84.345786 179.981153 -3.325256 6.617252 -0.210168 0.068299 -0.503005 -0.000000 0.000000 0.000000 0.000000 0.000000 0.000000 0.000000 
7.307002 16.032955 1.122778 -172.033945 -89.399600 -161.002755 -10.893415 -0.926008 -2.120844 -9.621432 2.007174 -56.408379 0.866813 5.178200 76.159556 2.659974 13.304479 -18.290197 -2.281300 -0.000000 -18.193800 9.095465 0.061047 -3.661968 17.855924 -6.418411 -47.157656 1.749030 -4.489226 60.966758 -1.317561 0.382819 -25.504517 0.720600 -0.000000 -27.286200 5.668822 -0.061683 7.544041 0.704932 -0.078126 -1.412917 -4.301464 -0.034596 -0.267555 7.502924 -11.246640 -8.571131 -1.638886 -0.084688 -0.605399 0.000000 0.000000 0.000000 4.969750 12.866832 1.853320 -71.293015 7.048936 15.224839 0.090511 -89.913526 0.011148 -1.921404 2.657014 -0.039211 0.006237 0.265211 0.000000 0.000000 0.000000 0.000000 0.000000 0.000000 0.000000 2.181600 -4.524555 -0.230877 66.563662 8.288082 11.016144 179.691717 83.827884 179.980791 -3.314497 6.582564 -0.208491 0.067241 -0.507286 -0.000000 0.000000 0.000000 0.000000 0.000000 0.000000 0.000000 
